<?xml version="1.0" encoding="UTF-8" standalone="no"?>
<!DOCTYPE svg PUBLIC "-//W3C//DTD SVG 1.1//EN" "http://www.w3.org/Graphics/SVG/1.1/DTD/svg11.dtd">
<svg width="100%" height="100%" viewBox="0 0 1166 774" version="1.1" xmlns="http://www.w3.org/2000/svg" xmlns:xlink="http://www.w3.org/1999/xlink" xml:space="preserve" xmlns:serif="http://www.serif.com/" style="fill-rule:evenodd;clip-rule:evenodd;stroke-linejoin:round;stroke-miterlimit:2;">
    <g transform="matrix(1,0,0,1,-13.3194,-13.878)">
        <g transform="matrix(0.957591,0,0,0.853966,0,0)">
            <rect id="ArtBoard1" x="0" y="0" width="1238.01" height="932.522" style="fill:none;"/>
            <g id="ArtBoard11" serif:id="ArtBoard1">
                <g id="Layer_x0020_1" transform="matrix(4.3512,0,0,4.8792,-563.579,-476.043)">
                    <g id="_2553833459360">
                        <g>
                            <path d="M272.57,100.897C340.713,100.897 395.954,156.137 395.954,224.28C395.954,244.815 390.931,264.175 382.056,281.208L163.085,281.208C154.21,264.175 149.187,244.815 149.187,224.28C149.187,156.137 204.428,100.897 272.57,100.897Z" style="fill:rgb(150,216,206);"/>
                            <g>
                                <ellipse cx="272.57" cy="281.208" rx="139.851" ry="5.33" style="fill:rgb(49,48,51);"/>
                                <path d="M326.711,281.208L374.551,281.208L387.307,225.987C390.346,212.831 382.069,202.067 368.913,202.067L344.993,202.067L326.711,281.208Z" style="fill:rgb(49,48,51);"/>
                                <path d="M178.427,270.548C187.246,270.548 193.976,275.1 195.01,281.208L158.768,281.208C161.565,275.1 169.607,270.548 178.427,270.548Z" style="fill:rgb(242,157,114);"/>
                                <path d="M348.74,177.521C364.925,178.682 376.701,189.563 371.161,208.078L349.282,281.208L272.57,281.208L277.504,242.717L256.884,281.208L186.258,281.208L191.612,270.292L239.808,260.111L268.425,199.153C272.937,189.543 278.398,188.297 291.98,183.974L318.97,175.385L348.74,177.521Z" style="fill:rgb(24,150,58);"/>
                                <path d="M372.187,195.179C372.871,198.934 372.607,203.246 371.161,208.078L349.282,281.208L272.57,281.208L273.776,271.806L327.62,259.863L337.302,201.691C341.885,174.159 368.045,181.636 372.187,195.179Z" style="fill:rgb(8,120,38);"/>
                                <path d="M277.504,242.717L256.884,281.208L186.258,281.208L191.612,270.292L239.808,260.111L268.425,199.153C269.671,196.5 270.989,194.486 272.53,192.867C269.959,208.576 271.621,224.97 278.454,235.507L277.504,242.717Z" style="fill:rgb(8,120,38);"/>
                                <path d="M327.773,177.079L327.103,157.957L303.572,163.431L304.204,181.432C304.627,193.486 327.798,191.413 327.773,177.079Z" style="fill:rgb(242,157,114);"/>
                                <path d="M326.159,158.177L303.572,163.431L304.204,181.432C304.214,181.708 304.24,181.974 304.273,182.235L304.418,182.237C315.511,182.237 324.759,171.726 326.159,158.177Z" style="fill:rgb(224,136,92);"/>
                                <g transform="matrix(0.632797,0,0.111801,0.584052,132.719,195.063)">
                                    <rect x="-0" y="0" width="192" height="117.456" style="fill:rgb(49,48,51);"/>
                                </g>
                                <g transform="matrix(0.632797,0,-0.183888,0.584052,186.258,251.453)">
                                    <rect x="-0" y="0" width="43.996" height="50.946" style="fill:white;"/>
                                </g>
                                <rect x="168.537" y="277.385" width="112.195" height="3.823" style="fill:rgb(49,48,51);"/>
                                <path d="M266.185,270.548C275.005,270.548 281.735,275.1 282.769,281.208L246.527,281.208C249.323,275.1 257.366,270.548 266.185,270.548Z" style="fill:rgb(242,157,114);"/>
                                <path d="M140.963,201.663L144.569,201.663L148.105,220.13L144.498,220.13L140.963,201.663Z" style="fill:rgb(32,31,33);"/>
                                <g>
                                    <path d="M147.337,201.663L150.944,201.663C152.122,207.818 153.301,213.974 154.479,220.13L150.872,220.13C149.694,213.974 148.516,207.818 147.337,201.663Z" style="fill:rgb(32,31,33);"/>
                                    <path d="M153.712,201.663L157.319,201.663C158.497,207.818 159.675,213.974 160.854,220.13L157.247,220.13C156.069,213.974 154.89,207.818 153.712,201.663Z" style="fill:rgb(32,31,33);"/>
                                    <path d="M160.086,201.663L163.693,201.663C164.871,207.818 166.05,213.974 167.228,220.13L163.621,220.13C162.443,213.974 161.265,207.818 160.086,201.663Z" style="fill:rgb(32,31,33);"/>
                                    <path d="M166.461,201.663L170.068,201.663C171.246,207.818 172.424,213.974 173.603,220.13L169.996,220.13C168.818,213.974 167.639,207.818 166.461,201.663Z" style="fill:rgb(32,31,33);"/>
                                    <path d="M172.835,201.663L176.442,201.663C177.621,207.818 178.799,213.974 179.977,220.13L176.371,220.13C175.192,213.974 174.014,207.818 172.835,201.663Z" style="fill:rgb(32,31,33);"/>
                                    <path d="M179.21,201.663L182.817,201.663C183.995,207.818 185.174,213.974 186.352,220.13L182.745,220.13C181.567,213.974 180.388,207.818 179.21,201.663Z" style="fill:rgb(32,31,33);"/>
                                    <path d="M185.585,201.663L189.191,201.663C190.37,207.818 191.548,213.974 192.726,220.13L189.12,220.13C187.941,213.974 186.763,207.818 185.585,201.663Z" style="fill:rgb(32,31,33);"/>
                                    <path d="M191.959,201.663L195.566,201.663C196.745,207.818 197.923,213.974 199.101,220.13L195.494,220.13C194.316,213.974 193.138,207.818 191.959,201.663Z" style="fill:rgb(32,31,33);"/>
                                    <path d="M198.334,201.663L201.941,201.663C203.119,207.818 204.297,213.974 205.476,220.13L201.869,220.13C200.691,213.974 199.512,207.818 198.334,201.663Z" style="fill:rgb(32,31,33);"/>
                                    <path d="M204.708,201.663L208.315,201.663C209.494,207.818 210.672,213.974 211.85,220.13L208.244,220.13C207.065,213.974 205.887,207.818 204.708,201.663Z" style="fill:rgb(32,31,33);"/>
                                    <path d="M211.083,201.663L214.69,201.663C215.868,207.818 217.047,213.974 218.225,220.13L214.618,220.13C213.44,213.974 212.261,207.818 211.083,201.663Z" style="fill:rgb(32,31,33);"/>
                                    <path d="M217.458,201.663L221.064,201.663C222.243,207.818 223.421,213.974 224.599,220.13L220.993,220.13C219.814,213.974 218.636,207.818 217.458,201.663Z" style="fill:rgb(32,31,33);"/>
                                    <path d="M223.832,201.663L227.439,201.663C228.617,207.818 229.796,213.974 230.974,220.13L227.367,220.13C226.189,213.974 225.01,207.818 223.832,201.663Z" style="fill:rgb(32,31,33);"/>
                                    <path d="M230.207,201.663L233.813,201.663C234.992,207.818 236.17,213.974 237.349,220.13L233.742,220.13C232.563,213.974 231.385,207.818 230.207,201.663Z" style="fill:rgb(32,31,33);"/>
                                    <path d="M236.581,201.663L240.188,201.663C241.366,207.818 242.545,213.974 243.723,220.13L240.116,220.13C238.938,213.974 237.76,207.818 236.581,201.663Z" style="fill:rgb(32,31,33);"/>
                                </g>
                                <path d="M242.956,201.663L246.563,201.663L250.098,220.13L246.491,220.13L242.956,201.663Z" style="fill:rgb(32,31,33);"/>
                                <path d="M327.864,136.893C329.081,140.738 329.527,145.137 329.008,149.811C327.335,164.877 316.286,177.091 304.329,177.091C292.372,177.091 284.034,164.877 285.706,149.811C286.225,145.137 287.647,140.738 289.718,136.893L327.864,136.893Z" style="fill:rgb(245,178,144);"/>
                                <path d="M318.582,137.915L317.061,138.506C308.008,142.027 297.963,142.027 288.91,138.506L286.418,145.652L285.493,141.969C284.909,139.645 284.288,137.329 283.632,135.024C282.885,132.402 283.233,129.589 284.596,127.228C285.959,124.867 288.221,123.16 290.865,122.495C300.406,120.097 310.393,120.097 319.934,122.495C323.16,123.306 325.679,125.825 326.49,129.051L327.527,128.622C328.742,128.119 330.123,128.21 331.262,128.868C332.402,129.525 333.17,130.675 333.342,131.98C334.879,143.622 332.701,155.37 327.246,165.599L318.582,137.915Z" style="fill:rgb(49,48,51);"/>
                                <g transform="matrix(0.827999,0,-0.0409961,0.921884,324.34,154.689)">
                                    <ellipse cx="-0" cy="0" rx="4.837" ry="7.725" style="fill:rgb(245,178,144);"/>
                                </g>
                                <path d="M293.836,168.012C298.275,173.125 302.587,172.896 306.781,167.759C302.466,167.843 298.151,167.928 293.836,168.012Z" style="fill:white;"/>
                            </g>
                        </g>
                        <circle cx="235.446" cy="138.94" r="30.3" style="fill:rgb(132,207,196);"/>
                        <path d="M333.62,257.381L333.62,270.053L343.627,270.053C344.271,270.053 344.813,269.51 344.813,268.866L344.813,258.567C344.813,257.923 344.271,257.381 343.627,257.381L333.62,257.381ZM329.211,252.972L343.627,252.972C346.704,252.972 349.222,255.49 349.222,258.567L349.222,268.866C349.222,271.944 346.704,274.461 343.627,274.461L329.211,274.461L329.211,252.972Z" style="fill:rgb(245,164,14);"/>
                        <rect x="313.746" y="246.225" width="25.752" height="34.983" style="fill:rgb(255,204,0);"/>
                        <circle cx="232.896" cy="134.44" r="30.3" style="fill:white;"/>
                        <circle cx="232.896" cy="134.44" r="22.05" style="fill:rgb(104,176,165);"/>
                        <path d="M230.77,112.39C230.77,111.216 231.722,110.264 232.896,110.264C234.07,110.264 235.022,111.216 235.022,112.39L235.022,135.312L245.433,144.878C246.295,145.672 246.351,147.014 245.557,147.876C244.764,148.738 243.422,148.794 242.559,148.001L231.558,137.892C231.077,137.502 230.77,136.907 230.77,136.24L230.77,112.39Z" style="fill:white;fill-rule:nonzero;"/>
                        <path d="M232.896,135.002L215.647,144.977L233.947,136.764L232.896,135.002Z" style="fill:rgb(232,102,37);"/>
                    </g>
                </g>
            </g>
        </g>
    </g>
</svg>
